<svg width="20" height="20" viewBox="0 0 20 20" fill="none" xmlns="http://www.w3.org/2000/svg">
<path d="M15 15.7166H14.3667C13.7 15.7166 13.0667 15.975 12.6 16.4416L11.175 17.85C10.525 18.4917 9.46667 18.4917 8.81667 17.85L7.39166 16.4416C6.925 15.975 6.28333 15.7166 5.625 15.7166H5C3.61667 15.7166 2.5 14.6083 2.5 13.2417V4.14996C2.5 2.7833 3.61667 1.67499 5 1.67499H15C16.3833 1.67499 17.5 2.7833 17.5 4.14996V13.2417C17.5 14.6 16.3833 15.7166 15 15.7166Z" stroke="#525252" stroke-width="1.25" stroke-miterlimit="10" stroke-linecap="round" stroke-linejoin="round"/>
<path d="M5.83398 7.6333C5.83398 6.8583 6.46732 6.22491 7.24232 6.22491C8.01732 6.22491 8.65065 6.8583 8.65065 7.6333C8.65065 9.19997 6.42565 9.36663 5.93398 10.8583C5.83398 11.1666 6.09232 11.475 6.41732 11.475H8.65065" stroke="#525252" stroke-width="1.25" stroke-linecap="round" stroke-linejoin="round"/>
<path d="M13.3674 11.4666V6.70832C13.3674 6.49165 13.2258 6.29993 13.0174 6.2416C12.8091 6.18327 12.5841 6.2666 12.4675 6.44993C11.8675 7.4166 11.2174 8.51661 10.6508 9.48328C10.5591 9.64161 10.5591 9.84995 10.6508 10.0083C10.7424 10.1666 10.9175 10.2666 11.1091 10.2666H14.1674" stroke="#525252" stroke-width="1.25" stroke-linecap="round" stroke-linejoin="round"/>
</svg>
