<svg width="20" height="20" viewBox="0 0 20 20" fill="none" xmlns="http://www.w3.org/2000/svg">
<path d="M15 15.7167H14.3667C13.7 15.7167 13.0667 15.975 12.6 16.4417L11.175 17.8501C10.525 18.4917 9.46667 18.4917 8.81667 17.8501L7.39166 16.4417C6.925 15.975 6.28333 15.7167 5.625 15.7167H5C3.61667 15.7167 2.5 14.6084 2.5 13.2417V4.15002C2.5 2.78336 3.61667 1.67505 5 1.67505H15C16.3833 1.67505 17.5 2.78336 17.5 4.15002V13.2417C17.5 14.6001 16.3833 15.7167 15 15.7167Z" stroke="white" stroke-width="1.25" stroke-miterlimit="10" stroke-linecap="round" stroke-linejoin="round"/>
<path d="M5.83398 7.63324C5.83398 6.85824 6.46732 6.22485 7.24232 6.22485C8.01732 6.22485 8.65065 6.85824 8.65065 7.63324C8.65065 9.19991 6.42565 9.36657 5.93398 10.8582C5.83398 11.1666 6.09232 11.4749 6.41732 11.4749H8.65065" stroke="white" stroke-width="1.25" stroke-linecap="round" stroke-linejoin="round"/>
<path d="M13.3655 11.4666V6.70826C13.3655 6.49159 13.2238 6.29987 13.0155 6.24154C12.8072 6.18321 12.5822 6.26654 12.4655 6.44987C11.8655 7.41654 11.2155 8.51655 10.6488 9.48322C10.5572 9.64155 10.5572 9.84989 10.6488 10.0082C10.7405 10.1666 10.9155 10.2665 11.1072 10.2665H14.1655" stroke="white" stroke-width="1.25" stroke-linecap="round" stroke-linejoin="round"/>
</svg>
