<svg width="17" height="16" viewBox="0 0 17 16" fill="none" xmlns="http://www.w3.org/2000/svg">
<path d="M8.49935 12.3333C10.8926 12.3333 12.8327 10.3932 12.8327 7.99996C12.8327 5.60673 10.8926 3.66663 8.49935 3.66663C6.10612 3.66663 4.16602 5.60673 4.16602 7.99996C4.16602 10.3932 6.10612 12.3333 8.49935 12.3333Z" stroke="#525252" stroke-width="1.16667" stroke-linecap="round" stroke-linejoin="round"/>
<path d="M13.2597 12.7599L13.173 12.6733M13.173 3.32659L13.2597 3.23992L13.173 3.32659ZM3.73967 12.7599L3.82634 12.6733L3.73967 12.7599ZM8.49967 1.38659V1.33325V1.38659ZM8.49967 14.6666V14.6133V14.6666ZM1.88634 7.99992H1.83301H1.88634ZM15.1663 7.99992H15.113H15.1663ZM3.82634 3.32659L3.73967 3.23992L3.82634 3.32659Z" stroke="#525252" stroke-width="1.55556" stroke-linecap="round" stroke-linejoin="round"/>
</svg>
