<svg width="20" height="20" viewBox="0 0 20 20" fill="none" xmlns="http://www.w3.org/2000/svg">
<path d="M13.8405 0.833374H6.15884C2.82217 0.833374 0.833008 2.82254 0.833008 6.15921V13.8317C0.833008 17.1775 2.82217 19.1667 6.15884 19.1667H13.8313C17.168 19.1667 19.1572 17.1775 19.1572 13.8409V6.15921C19.1663 2.82254 17.1772 0.833374 13.8405 0.833374ZM14.3813 7.89171L9.18384 13.0892C9.05551 13.2175 8.88134 13.2909 8.69801 13.2909C8.51467 13.2909 8.34051 13.2175 8.21217 13.0892L5.61801 10.495C5.35217 10.2292 5.35217 9.78921 5.61801 9.52337C5.88384 9.25754 6.32384 9.25754 6.58967 9.52337L8.69801 11.6317L13.4097 6.92004C13.6755 6.65421 14.1155 6.65421 14.3813 6.92004C14.6472 7.18587 14.6472 7.61671 14.3813 7.89171Z" fill="#007BFF"/>
</svg>
